<svg width="51" height="50" viewBox="0 0 51 50" fill="none" xmlns="http://www.w3.org/2000/svg">
<path d="M24.1853 41.8303C24.1353 32.2406 23.7357 27.0908 20.9588 22.541C11.4295 21.731 0.981138 10.4214 2.14983 1.13172H2.19978V1.08173C11.3795 -0.0282348 22.6769 10.3714 23.536 19.911C24.6447 21.581 25.5038 23.2909 26.1131 25.2109C26.6725 23.5909 27.4216 22.081 28.4305 20.621C28.7801 10.9314 40.4371 -0.078233 49.8666 1.13172V1.18172H49.9165C51.0253 10.2714 40.8866 21.381 31.4571 22.491C28.3306 27.0808 27.8711 32.1806 27.7712 41.8303C40.1774 42.1302 49.9165 45.2101 49.9165 49H2C2.04994 45.2101 11.839 42.0803 24.1952 41.8303H24.1853Z" stroke="white" stroke-width="2" stroke-miterlimit="10"/>
</svg>
