<svg width="44" height="50" viewBox="0 0 44 50" fill="none" xmlns="http://www.w3.org/2000/svg">
<g clip-path="url(#clip0_761_244)">
<path d="M37.7987 11.0571L22.9996 2.29234C22.3008 1.87954 21.4274 1.85074 20.7093 2.23474L6.1819 9.82834C5.41526 10.2315 4.93004 11.0187 4.93974 11.8827L5.04649 28.1355C5.04649 28.9419 5.48319 29.6907 6.1819 30.1035L20.9907 38.8683C21.6895 39.2811 22.5629 39.3099 23.281 38.9259L37.8084 31.3323C38.575 30.9291 39.0603 30.1419 39.0506 29.2779L38.9438 13.0251C38.9438 12.2187 38.5071 11.4699 37.8084 11.0571H37.7987Z" stroke="white" stroke-width="2" stroke-miterlimit="10"/>
<path d="M5.7258 10.9897L21.9903 19.6489L37.7502 11.0281" stroke="white" stroke-width="2" stroke-miterlimit="10"/>
<path d="M21.9903 19.6489L22.097 38.4169" stroke="white" stroke-width="2" stroke-miterlimit="10"/>
<path d="M6.08486 35.2202L1.5044 37.6394C1.5044 37.6394 1.46558 37.7258 1.5044 37.745L22.0097 48.0362C22.0097 48.0362 22.0485 48.0362 22.0679 48.0362L42.4956 37.6202C42.4956 37.6202 42.5344 37.5434 42.4956 37.5146L38.0704 35.3258" stroke="white" stroke-width="2" stroke-miterlimit="10" stroke-linecap="round"/>
</g>
<defs>
<clipPath id="clip0_761_244">
<rect width="43.0257" height="48.0725" fill="white" transform="translate(0.48715 0.963867)"/>
</clipPath>
</defs>
</svg>
