<svg width="48" height="48" viewBox="0 0 48 48" fill="none" xmlns="http://www.w3.org/2000/svg">
<path d="M11.3695 43.7895C5.0994 43.7895 0 38.6906 0 32.4209V17.2631C0 15.1726 1.69906 13.4736 3.78976 13.4736H34.108C36.1987 13.4736 37.8978 15.1726 37.8978 17.2631V23.4103C37.8978 24.1072 37.3314 24.6735 36.6345 24.6735C35.9376 24.6735 35.3712 24.1072 35.3712 23.4103V17.2631C35.3712 16.5662 34.8048 15.9999 34.1079 15.9999H3.78965C3.09273 15.9999 2.52636 16.5662 2.52636 17.2631V32.4209C2.52636 37.2967 6.49301 41.2629 11.3691 41.2629H24.0019C24.6989 41.2629 25.2652 41.8292 25.2652 42.5261C25.2652 43.2229 24.6989 43.7893 24.0019 43.7893L11.3695 43.7895Z" fill="white"/>
<path d="M28.213 34.5262H8.84268C6.75198 34.5262 5.05292 32.8273 5.05292 30.7368V26.5263C5.05292 24.4357 6.75198 22.7368 8.84268 22.7368H24.0018C24.6987 22.7368 25.2651 23.3031 25.2651 24C25.2651 24.6969 24.6987 25.2632 24.0018 25.2632H8.84268C8.14576 25.2632 7.57939 25.8295 7.57939 26.5264V30.7369C7.57939 31.4337 8.14576 32.0001 8.84268 32.0001H28.213C28.9099 32.0001 29.4762 32.5664 29.4762 33.2632C29.4762 33.9601 28.9099 34.5262 28.213 34.5262Z" fill="white"/>
<path d="M12.3319 28.6312C12.3319 30.3954 9.68555 30.3954 9.68555 28.6312C9.68555 26.8671 12.3319 26.8671 12.3319 28.6312Z" fill="white"/>
<path d="M16.5425 28.6312C16.5425 30.3954 13.8962 30.3954 13.8962 28.6312C13.8962 26.8671 16.5425 26.8671 16.5425 28.6312Z" fill="white"/>
<path d="M20.7536 28.6312C20.7536 30.3954 18.1073 30.3954 18.1073 28.6312C18.1073 26.8671 20.7536 26.8671 20.7536 28.6312Z" fill="white"/>
<path d="M24.9643 28.6312C24.9643 30.3954 22.3179 30.3954 22.3179 28.6312C22.3179 26.8671 24.9643 26.8671 24.9643 28.6312Z" fill="white"/>
<path d="M31.1607 16C30.4637 16 29.8974 15.4337 29.8974 14.7368V13.4737C29.8974 7.438 24.9854 2.52658 18.9494 2.52658C12.9134 2.52658 8.00137 7.43816 8.00137 13.4737V14.7368C8.00137 15.4337 7.435 16 6.73808 16C6.04117 16 5.47479 15.4337 5.47479 14.7368V13.4737C5.47479 6.04428 11.5196 0 18.9496 0C26.3796 0 32.4244 6.04428 32.4244 13.4737V14.7368C32.4244 15.4337 31.8576 16 31.1607 16Z" fill="white"/>
<path d="M26.1076 16.0001C25.4107 16.0001 24.8443 15.4338 24.8443 14.737V13.4738C24.8443 10.2233 22.2 7.57878 18.9489 7.57878C15.6978 7.57878 13.0534 10.223 13.0534 13.4738V14.737C13.0534 15.4338 12.487 16.0001 11.7901 16.0001C11.0932 16.0001 10.5268 15.4338 10.5268 14.737V13.4738C10.5268 8.83166 14.3039 5.05273 18.9485 5.05273C23.5931 5.05273 27.3703 8.83166 27.3703 13.4738V14.737C27.3703 15.4338 26.8039 16.0001 26.107 16.0001H26.1076Z" fill="white"/>
<path d="M47.0739 24.4654L37.8097 21.939C37.5823 21.878 37.3423 21.8801 37.117 21.9475L27.8528 24.7096C27.318 24.8696 26.9496 25.3622 26.9496 25.9201V38.6845C26.9496 40.9961 28.2107 43.1203 30.2404 44.2297L36.8705 47.8465C37.06 47.9497 37.2664 48.0002 37.4748 48.0002C37.6832 48.0002 37.8917 47.9476 38.0791 47.8465L44.7092 44.2297C46.7388 43.1224 48 40.9981 48 38.6845V25.6824C48 25.1119 47.6189 24.6129 47.0694 24.4635L47.0739 24.4654ZM42.5809 32.4736L37.5279 37.5262C37.2837 37.7704 36.9594 37.8967 36.6352 37.8967C36.3699 37.8967 36.1025 37.8146 35.8773 37.6441L32.5086 35.1178C31.9506 34.6988 31.8369 33.9072 32.2559 33.3494C32.6749 32.7915 33.4666 32.6799 34.0245 33.0968L36.5173 34.9662L40.7955 30.6884C41.2882 30.1957 42.0883 30.1957 42.581 30.6884C43.0736 31.181 43.0736 31.9809 42.5809 32.4736Z" fill="white"/>
</svg>
