<svg width="32" height="32" viewBox="0 0 32 32" fill="none" xmlns="http://www.w3.org/2000/svg">
<path d="M17.2336 4C18.5835 4.0036 19.2687 4.0108 19.8603 4.0276L20.0931 4.036C20.3619 4.0456 20.627 4.0576 20.9474 4.072C22.2242 4.132 23.0953 4.33359 23.8597 4.62998C24.6516 4.93478 25.3188 5.34757 25.986 6.01355C26.5964 6.61322 27.0685 7.33889 27.3695 8.1399C27.6659 8.90428 27.8675 9.77546 27.9275 11.0534C27.9419 11.3726 27.9539 11.6378 27.9635 11.9078L27.9707 12.1406C27.9887 12.731 27.9959 13.4162 27.9983 14.7661L27.9995 15.6613V17.2333C28.0024 18.1085 27.9932 18.9838 27.9719 19.8588L27.9647 20.0916C27.9551 20.3616 27.9431 20.6268 27.9287 20.946C27.8687 22.224 27.6647 23.0939 27.3695 23.8595C27.0685 24.6605 26.5964 25.3862 25.986 25.9859C25.3863 26.5963 24.6607 27.0685 23.8597 27.3694C23.0953 27.6658 22.2242 27.8674 20.9474 27.9274L20.0931 27.9634L19.8603 27.9706C19.2687 27.9874 18.5835 27.9958 17.2336 27.9982L16.3385 27.9994H14.7677C13.8921 28.0025 13.0165 27.9933 12.1411 27.9718L11.9083 27.9646C11.6234 27.9538 11.3386 27.9414 11.0539 27.9274C9.77719 27.8674 8.90603 27.6658 8.14047 27.3694C7.33991 27.0683 6.61468 26.5961 6.01538 25.9859C5.40455 25.3863 4.93197 24.6606 4.63065 23.8595C4.33427 23.0951 4.13268 22.224 4.07268 20.946L4.03668 20.0916L4.03068 19.8588C4.00856 18.9838 3.99856 18.1086 4.00068 17.2333V14.7661C3.99736 13.8909 4.00616 13.0156 4.02708 12.1406L4.03548 11.9078C4.04508 11.6378 4.05708 11.3726 4.07148 11.0534C4.13148 9.77546 4.33307 8.90548 4.62945 8.1399C4.93147 7.33856 5.40488 6.61286 6.01658 6.01355C6.61553 5.40342 7.34034 4.93127 8.14047 4.62998C8.90603 4.33359 9.77599 4.132 11.0539 4.072C11.3731 4.0576 11.6395 4.0456 11.9083 4.036L12.1411 4.0288C13.0161 4.00748 13.8913 3.99828 14.7665 4.0012L17.2336 4ZM16.0001 9.99986C14.4089 9.99986 12.8828 10.632 11.7577 11.7572C10.6325 12.8824 10.0004 14.4084 10.0004 15.9997C10.0004 17.591 10.6325 19.1171 11.7577 20.2422C12.8828 21.3674 14.4089 21.9996 16.0001 21.9996C17.5913 21.9996 19.1173 21.3674 20.2425 20.2422C21.3677 19.1171 21.9998 17.591 21.9998 15.9997C21.9998 14.4084 21.3677 12.8824 20.2425 11.7572C19.1173 10.632 17.5913 9.99986 16.0001 9.99986ZM16.0001 12.3998C16.4728 12.3997 16.9409 12.4928 17.3777 12.6736C17.8145 12.8544 18.2114 13.1195 18.5457 13.4538C18.88 13.788 19.1453 14.1848 19.3262 14.6215C19.5072 15.0583 19.6004 15.5264 19.6005 15.9991C19.6006 16.4719 19.5075 16.94 19.3267 17.3768C19.1459 17.8136 18.8808 18.2105 18.5466 18.5448C18.2123 18.8791 17.8155 19.1444 17.3788 19.3254C16.9421 19.5064 16.474 19.5995 16.0013 19.5996C15.0465 19.5996 14.1309 19.2203 13.4558 18.5452C12.7807 17.8701 12.4015 16.9545 12.4015 15.9997C12.4015 15.045 12.7807 14.1293 13.4558 13.4542C14.1309 12.7791 15.0465 12.3998 16.0013 12.3998M22.301 8.1999C21.9032 8.1999 21.5216 8.35793 21.2404 8.63923C20.9591 8.92053 20.801 9.30205 20.801 9.69986C20.801 10.0977 20.9591 10.4792 21.2404 10.7605C21.5216 11.0418 21.9032 11.1998 22.301 11.1998C22.6988 11.1998 23.0803 11.0418 23.3616 10.7605C23.6429 10.4792 23.8009 10.0977 23.8009 9.69986C23.8009 9.30205 23.6429 8.92053 23.3616 8.63923C23.0803 8.35793 22.6988 8.1999 22.301 8.1999Z" fill="white"/>
</svg>
