<svg width="48" height="48" viewBox="0 0 48 48" fill="none" xmlns="http://www.w3.org/2000/svg">
<path d="M14.2239 31.052C14.1319 29.2538 13.5086 27.8642 11.5875 27.4658C11.4648 27.4453 11.3626 27.3636 11.2502 27.3329C9.07368 26.8732 7.79635 25.8106 8.34816 23.3381C8.41969 23.0418 8.09269 22.4798 7.79635 22.3061C6.8869 21.7646 6.45771 21.1005 5.957 20.0992C5.13951 18.4645 5.31323 16.9524 5.30301 15.3891C5.30301 13.642 5.85482 13.1925 7.59198 13.1209C7.79635 13.1209 7.99051 13.1005 8.39925 13.0698C8.39925 11.4045 8.39925 9.74928 8.39925 8.09411C8.39925 4.37507 9.89117 2.52578 13.5596 1.8821C15.2048 1.59602 16.8909 1.41211 18.5565 1.41211C23.2469 1.41211 27.9372 1.47341 32.6276 1.66754C33.9356 1.71862 35.2946 2.12731 36.4902 2.66882C38.2785 3.47597 39.3208 4.93702 39.2799 7.02131C39.239 9.00343 39.2799 10.9856 39.2799 12.9983C39.9441 13.0596 40.3835 13.0698 40.8127 13.1516C41.8448 13.3661 42.509 13.8872 42.4579 15.0622C42.4272 15.9613 42.6009 16.8808 42.4477 17.7493C42.1207 19.4862 41.9878 21.3559 39.9952 22.2857C39.6171 22.4594 39.3003 23.2768 39.3514 23.7467C39.5864 25.6778 38.8814 26.8221 36.9296 27.1593C36.6537 27.2103 36.4085 27.4147 36.1326 27.4658C34.0991 27.854 33.6188 29.3662 33.3837 31.4607C34.5691 29.3049 36.4595 28.5897 38.2171 27.6803C38.8098 27.3738 39.3616 27.3125 39.7091 27.8745C40.2098 28.6714 40.874 29.5398 40.9251 30.4083C41.0784 33.2078 41.0068 36.0277 40.966 38.8374C40.966 39.3789 40.8535 40.1452 40.4959 40.4211C39.0551 41.5143 39.3821 42.9958 39.3718 44.4262C39.3616 46.4287 39.2084 46.5514 37.2157 46.582C33.7618 46.6331 34.2523 46.4492 34.1501 43.7314C34.1399 43.4147 34.1093 43.098 34.0888 42.6791H13.5699C13.5699 43.476 13.5494 44.2729 13.5699 45.0699C13.6107 46.0814 13.1713 46.6024 12.129 46.582C11.3116 46.5718 10.4941 46.582 9.67658 46.582C8.78756 46.582 8.29706 46.1938 8.32772 45.2538C8.34816 44.6816 8.3175 44.1095 8.32772 43.5475C8.35838 42.4952 8.38903 41.5143 7.39783 40.7072C6.97886 40.37 6.77449 39.5526 6.76427 38.9396C6.70296 35.9664 6.63143 32.983 6.80515 30.0201C6.85624 29.1925 7.7146 28.3955 8.28685 27.6395C8.39925 27.4862 8.89996 27.4862 9.15543 27.5884C11.0663 28.3853 13.0181 29.1618 14.2239 31.0418V31.052ZM31.7283 35.2001C32.9546 33.8004 32.8115 32.1554 32.8217 30.5309C32.8422 28.2934 32.8626 26.0558 32.9341 23.808C32.9341 23.4709 33.1487 22.9498 33.3837 22.8578C34.2625 22.5207 35.1924 22.3368 36.1019 22.0916L36.1632 22.2959C35.5399 22.6331 34.9165 22.9702 34.283 23.3074C34.3239 23.3687 34.3647 23.4402 34.4056 23.5015L35.6216 23.1848C35.6216 23.1848 35.6523 23.2768 35.6727 23.3278C35.2027 23.6241 34.7326 23.9102 34.2625 24.2065C34.2932 24.2576 34.3239 24.3087 34.3545 24.3598C34.8144 24.2269 35.2844 24.0839 35.7442 23.9511C35.7647 23.9919 35.7749 24.043 35.7953 24.0839C35.264 24.4006 34.7326 24.7174 34.2012 25.0239C34.2319 25.0852 34.2523 25.1363 34.283 25.1976C34.7633 25.0545 35.2333 24.9115 35.7136 24.7684C35.734 24.8093 35.7545 24.8502 35.7749 24.8911C35.2333 25.2384 34.6917 25.5756 33.9049 26.0762C34.5282 25.9843 34.8552 25.9434 35.3662 25.8719C34.8552 26.2397 34.5078 26.4849 34.1706 26.7301C35.2129 26.5871 36.153 26.2295 37.1238 25.9434C37.7777 25.7493 38.0128 25.4121 38.0026 24.7174C37.9515 18.4849 37.9719 12.2525 37.8391 6.02003C37.8186 5.18223 37.2259 4.11965 36.5515 3.57814C35.7851 2.95489 34.6509 2.53599 33.6597 2.49512C29.2656 2.27035 24.8614 2.12731 20.4572 2.12731C18.0252 2.12731 15.5625 2.33165 13.1509 2.6586C11.1685 2.92424 9.88095 4.29334 9.86051 5.90764C9.78898 12.2218 9.76854 18.536 9.75833 24.8502C9.75833 25.1465 9.9627 25.6165 10.1875 25.7186C11.2911 26.1886 12.4458 26.5667 13.5801 26.9651C13.6107 26.8936 13.6414 26.8221 13.6721 26.7506C13.202 26.4747 12.7422 26.1988 12.2721 25.923C12.2925 25.8719 12.313 25.831 12.3334 25.7799C12.7013 25.8617 13.0692 25.9434 13.7334 26.0865C13.0283 25.6063 12.5991 25.31 12.1597 25.0137C12.1904 24.9728 12.221 24.9319 12.2414 24.8911C12.64 25.0137 13.0385 25.126 13.437 25.2487C13.4677 25.1874 13.4881 25.1158 13.5188 25.0545L11.9758 24.1146C11.9758 24.1146 12.0269 24.0328 12.0473 23.9919C12.4765 24.1146 12.9057 24.2269 13.3348 24.3495L13.3859 24.1963C12.8648 23.8796 12.3334 23.5628 11.8123 23.2359C11.8327 23.1848 11.8634 23.1439 11.8838 23.0928C12.3947 23.2563 12.9057 23.4198 13.4166 23.5833C13.4472 23.522 13.4779 23.4607 13.4983 23.3994C12.7422 22.9805 11.9758 22.5616 11.2196 22.1427C11.2502 22.0916 11.2809 22.0303 11.3013 21.9792C12.4254 22.2857 13.5596 22.6024 14.7552 22.9294C14.7552 24.1759 14.6633 25.361 14.7757 26.536C15.0516 29.4377 14.2954 32.4722 15.7975 35.1797C13.4166 35.1797 11.0254 35.2001 8.63428 35.1797C7.84745 35.1797 7.45914 35.384 7.74526 36.2627H39.8623C40.0565 35.4556 39.8623 35.149 39.0346 35.1695C36.6435 35.2206 34.2523 35.1899 31.7079 35.1899L31.7283 35.2001ZM19.2821 40.0635H8.32772C8.30728 40.2065 8.28685 40.3393 8.25619 40.4824C8.96127 40.6969 9.67658 41.0954 10.3817 41.0954C19.3127 41.1567 28.2438 41.1874 37.1749 41.1465C37.9208 41.1465 38.6668 40.6459 39.4025 40.3904C39.3616 40.2678 39.3208 40.135 39.2799 40.0124H28.4788C28.6219 39.3483 28.7547 38.7761 28.8876 38.1631H18.8427C18.9857 38.7966 19.1084 39.3381 19.2718 40.0737L19.2821 40.0635ZM9.6357 32.1861C10.6473 32.1861 11.3422 31.4913 11.3218 30.5105C11.3013 29.6216 10.4736 28.8349 9.56417 28.8451C8.68537 28.8553 7.95985 29.5909 7.93941 30.5003C7.91898 31.4709 8.6445 32.1861 9.6357 32.1861ZM38.0128 32.1759C38.9835 32.1759 39.7397 31.4607 39.7295 30.5411C39.7091 29.6011 38.9427 28.8246 38.0434 28.8451C37.1442 28.8655 36.2961 29.6727 36.2858 30.5207C36.2858 31.4198 37.0624 32.1656 38.0128 32.1759ZM39.4127 37.969C39.3412 37.8464 39.2697 37.7238 39.2084 37.6012C37.9515 37.6012 36.6844 37.5705 35.4275 37.6216C35.1516 37.6318 34.8859 37.9588 34.61 38.1427C34.8552 38.3572 35.0903 38.7353 35.3559 38.7557C36.3267 38.8272 37.3179 38.8681 38.2785 38.7557C38.6872 38.7046 39.0346 38.2346 39.4127 37.9588V37.969ZM8.45034 37.6012L8.22553 37.9792C8.63428 38.2551 9.0328 38.7046 9.4722 38.7659C10.3919 38.8885 11.332 38.8374 12.2619 38.7659C12.548 38.7455 12.8035 38.4185 13.0794 38.2244C12.7933 38.0201 12.5173 37.642 12.221 37.6216C10.9641 37.5501 9.70723 37.5909 8.45034 37.5909V37.6012ZM39.3208 18.4747C39.5558 18.4747 39.801 18.4747 40.0361 18.4747C40.0361 17.1873 40.0361 15.9 40.0156 14.6126C40.0156 14.5309 39.7704 14.3981 39.658 14.4083C39.5354 14.4185 39.331 14.582 39.331 14.6842C39.3105 15.9511 39.3208 17.2078 39.3208 18.4747ZM39.9339 33.2282C38.0639 32.3393 35.7545 32.5743 35.2946 33.2282H39.9339ZM8.03138 32.6459C8.49122 33.5041 11.1378 33.7186 12.6298 33.1669C11.1276 32.278 9.61526 32.8195 8.03138 32.6459ZM8.25619 14.4185C8.17444 14.3879 8.08247 14.347 8.00072 14.3163C7.86788 14.6024 7.65329 14.8783 7.63285 15.1746C7.45914 17.4428 7.57154 18.066 8.25619 18.5054V14.4185ZM39.3208 21.4377C40.1893 21.1414 41.1703 21.029 40.7105 19.7314H39.3208V21.4377ZM8.3175 19.7416H6.92777C6.50881 21.029 7.48979 21.1414 8.3175 21.4785V19.7416Z" fill="white"/>
<path d="M23.9521 2.85299C27.641 3.0982 31.2175 3.34341 34.794 3.56819C35.7035 3.62949 36.0816 3.97687 36.1327 4.99859C36.3575 9.25913 36.6743 13.5197 37.0115 17.7802C37.083 18.6487 36.8786 19.1084 35.9794 19.3639C34.7736 19.7112 33.6189 20.263 32.4233 20.6512C31.7182 20.876 31.5241 21.2642 31.5037 21.9794C31.4321 25.3511 31.3095 28.733 31.1664 32.1046C31.0949 33.7087 30.3081 34.6895 28.6935 34.7508C25.4338 34.8632 22.1741 34.8428 18.9143 34.7304C17.402 34.6793 16.5947 33.678 16.5334 32.1353C16.4005 28.7636 16.2984 25.3817 16.2268 21.9999C16.2166 21.2949 16.0327 20.8862 15.3276 20.6614C14.0503 20.2425 12.8138 19.701 11.5365 19.2821C10.9234 19.088 10.6986 18.8019 10.7394 18.148C11.0562 13.6014 11.3628 9.05478 11.6285 4.50816C11.6795 3.54775 12.4051 3.63971 12.9364 3.59884C16.6356 3.31276 20.3347 3.07777 23.9419 2.84277L23.9521 2.85299ZM21.5303 17.2898H26.3228V9.80063H33.1693V5.75465H14.5408V9.89259H21.5201V17.2898H21.5303ZM29.8993 28.0075C29.93 27.8236 29.9504 27.6499 29.9811 27.466C29.5723 27.3639 29.1738 27.1697 28.7651 27.1697C26.2717 27.1289 23.7886 27.1289 21.2953 27.1289C20.396 27.1289 19.4968 27.1289 18.6078 27.2106C18.3625 27.231 18.1275 27.5171 17.8925 27.6908C18.1275 27.8747 18.3523 28.0995 18.6078 28.2425C18.7713 28.3243 19.0063 28.2834 19.2107 28.2834C22.2354 28.2834 25.2499 28.2834 28.2746 28.2528C28.8162 28.2528 29.3577 28.0995 29.8993 28.0178V28.0075ZM24.0543 21.9488C24.0543 21.9488 24.0543 21.9692 24.0543 21.9794C22.3887 21.9794 20.7128 21.9488 19.0472 21.9999C18.6589 22.0101 18.2808 22.337 17.9027 22.521C18.2603 22.7049 18.6078 23.0522 18.9654 23.0522C22.3069 23.0829 25.6382 23.0727 28.9797 23.0318C29.3067 23.0318 29.6234 22.7151 29.9402 22.5516C29.603 22.3473 29.2862 21.9897 28.9388 21.9794C27.314 21.9181 25.679 21.9488 24.0543 21.9488ZM18.1786 32.4213L18.0866 32.8607C18.5158 33.0139 18.945 33.3102 19.3742 33.3102C22.4704 33.3409 25.5769 33.3204 28.6731 33.2591C28.9797 33.2591 29.2862 32.8811 29.5928 32.6768C29.2658 32.5133 28.9388 32.217 28.6118 32.217C25.5155 32.1966 22.4091 32.217 19.3128 32.2374C18.9348 32.2374 18.5567 32.3498 18.1888 32.4111L18.1786 32.4213ZM23.8806 29.7138V29.6729C22.2558 29.6729 20.6208 29.6423 18.9961 29.6934C18.6384 29.7036 18.291 30.0408 17.9436 30.2247C18.2603 30.4086 18.5771 30.756 18.8939 30.7662C22.2354 30.807 25.5666 30.807 28.9081 30.7662C29.2249 30.7662 29.5417 30.4188 29.8585 30.2349C29.5315 30.0612 29.2147 29.7445 28.8877 29.7445C27.2221 29.6934 25.5462 29.724 23.8806 29.724V29.7138ZM23.9419 24.6155V24.595C22.1945 24.595 20.4369 24.5746 18.6895 24.6155C18.434 24.6155 18.1786 24.8913 17.9231 25.0344C18.1786 25.2285 18.4238 25.5759 18.6793 25.5861C22.1434 25.6372 25.5973 25.6474 29.0614 25.6167C29.3475 25.6167 29.6234 25.3 29.8993 25.1263C29.6234 24.9628 29.3475 24.6563 29.0614 24.6461C27.3549 24.6052 25.6382 24.6257 23.9317 24.6257L23.9419 24.6155Z" fill="white"/>
</svg>
